<?xml version="1.0" standalone="no"?>
<!DOCTYPE svg PUBLIC "-//W3C//DTD SVG 20010904//EN"
 "http://www.w3.org/TR/2001/REC-SVG-20010904/DTD/svg10.dtd">
<svg version="1.0" xmlns="http://www.w3.org/2000/svg"
 width="380.000000pt" height="380.000000pt" viewBox="0 0 380.000000 380.000000"
 preserveAspectRatio="xMidYMid meet">
<metadata>
Created by potrace 1.11, written by Peter Selinger 2001-2013
</metadata>
<g transform="translate(0.000000,380.000000) scale(0.100000,-0.100000)"
fill="#000000" stroke="none">
<path d="M2476 3033 c-3 -3 -48 -11 -67 -12 -9 -1 -22 -14 -29 -31 -7 -16 -14
-30 -16 -30 -2 0 -25 8 -51 19 -26 10 -55 17 -63 16 -8 -2 -35 -6 -60 -10 -25
-4 -47 -8 -48 -10 -2 -2 7 -25 21 -52 14 -26 28 -61 32 -78 11 -54 18 -109 19
-145 l1 -34 -42 3 -43 2 21 -47 c23 -50 32 -161 15 -167 -6 -2 -28 0 -50 4
-35 6 -42 4 -73 -27 -30 -30 -105 -84 -117 -84 -2 0 2 26 10 58 28 121 19 139
-77 145 -55 4 -81 -4 -109 -31 -21 -22 -149 -80 -191 -87 -35 -7 -36 -6 -34
27 3 37 -30 105 -57 119 -9 5 -42 10 -72 10 -44 1 -64 -4 -94 -23 -38 -25
-190 -101 -227 -114 -32 -11 -46 -14 -112 -20 -77 -8 -95 -19 -69 -39 11 -8
27 -15 37 -15 41 0 108 -89 124 -166 35 -159 42 -255 40 -524 -3 -253 -8 -363
-19 -415 -2 -11 -10 -42 -16 -70 -34 -145 -34 -151 -9 -192 13 -21 26 -40 31
-43 4 -3 3 -22 -3 -43 -9 -33 -7 -41 25 -91 19 -29 39 -57 46 -61 16 -10 177
130 211 183 29 46 65 131 73 174 2 13 9 43 14 68 9 39 17 94 27 190 2 14 6 59
9 100 12 135 12 135 76 95 27 -17 48 -23 64 -19 23 5 24 4 17 -28 -4 -18 -9
-37 -10 -43 -15 -78 -42 -131 -72 -140 -19 -6 -27 -35 -9 -35 5 0 7 -6 5 -12
-2 -7 38 -45 90 -85 l93 -72 60 47 c63 50 85 64 202 127 164 88 166 90 183
153 28 103 57 295 47 311 -3 6 -23 17 -45 24 -41 14 -59 37 -29 37 40 0 83
-24 96 -54 17 -43 58 -78 116 -100 l50 -20 -38 -27 c-53 -39 -81 -89 -87 -157
-4 -50 -1 -62 24 -102 24 -36 47 -54 120 -92 108 -57 157 -64 246 -36 112 35
177 91 223 193 14 33 30 67 35 76 4 9 11 33 14 53 l7 36 24 -23 c13 -13 43
-30 66 -37 24 -8 48 -17 53 -20 24 -17 85 -20 107 -6 13 8 73 31 133 51 141
46 154 55 150 98 -2 19 3 65 12 103 22 105 22 106 28 146 5 32 3 39 -21 51
l-26 14 26 16 c23 15 75 97 61 97 -2 0 0 11 5 25 5 14 12 36 14 48 3 12 23 85
46 162 22 77 42 149 45 160 2 11 11 47 20 80 8 33 12 75 9 93 l-6 32 -104 0
c-98 0 -108 -2 -171 -34 -38 -18 -93 -42 -123 -51 -68 -22 -78 -30 -51 -44 12
-7 21 -15 21 -19 0 -9 -119 -7 -127 2 -3 3 -18 -1 -34 -10 l-29 -15 0 36 c0
36 -14 74 -32 86 -5 3 -46 6 -91 7 -72 0 -89 -3 -141 -29 -32 -16 -62 -26 -67
-24 -4 3 -7 50 -5 104 l2 98 -69 -2 c-45 -2 -72 -7 -78 -16 -9 -15 -6 -21 -39
80 -11 35 -20 69 -20 75 0 6 -5 27 -10 47 -9 31 -15 37 -36 35 -14 0 -27 -2
-28 -3z m-870 -667 c25 -21 28 -30 27 -82 0 -59 -6 -95 -18 -125 -4 -11 3 -22
22 -34 15 -10 32 -24 36 -32 4 -7 17 -13 27 -13 23 0 37 -20 16 -21 -25 -2
-30 -4 -43 -12 -9 -6 -13 -2 -13 12 0 12 -3 20 -7 19 -9 -1 -40 9 -65 23 -11
5 -27 5 -43 -1 -28 -11 -28 -12 -25 55 1 28 3 92 3 142 l2 93 27 0 c15 0 39
-11 54 -24z m618 -95 c15 -28 15 -29 -14 -33 -17 -3 -30 -4 -30 -3 0 8 23 65
26 65 2 0 10 -13 18 -29z m-137 -429 c18 -12 -19 -86 -68 -133 -49 -47 -64
-50 -56 -10 6 29 -15 61 -41 61 -31 0 -5 22 61 54 78 37 86 40 104 28z"/>
<path d="M630 2169 c-19 -4 -48 -10 -63 -13 -43 -10 -237 -97 -237 -107 0 -5
-5 -9 -12 -9 -13 0 -135 -91 -190 -142 -41 -37 -47 -58 -23 -81 13 -13 66 -16
100 -6 19 6 84 -33 91 -54 4 -12 8 -87 10 -167 1 -80 4 -152 6 -160 39 -143
71 -210 120 -257 29 -28 98 -64 116 -62 4 1 42 1 85 0 l77 -1 17 -40 c26 -59
79 -71 153 -34 68 33 103 72 96 107 -4 20 0 34 13 48 22 24 22 34 -3 71 -17
26 -17 28 5 69 21 43 69 201 74 249 2 14 6 50 10 80 15 118 6 230 -22 297 -27
67 -179 184 -269 208 -41 11 -113 13 -154 4z m89 -381 c17 -47 -11 -195 -40
-214 -8 -4 -10 -3 -5 4 12 20 18 190 7 197 -19 11 -12 35 9 35 12 0 24 -9 29
-22z"/>
</g>
</svg>
